<?xml version="1.0" encoding="UTF-8"?>
<svg id="Layer_1" xmlns="http://www.w3.org/2000/svg" version="1.1" viewBox="0 0 360 180">
  <!-- Generator: Adobe Illustrator 29.2.1, SVG Export Plug-In . SVG Version: 2.1.0 Build 116)  -->
  <defs>
    <style>
      .st0 {
        fill: #fff;
      }
    </style>
  </defs>
  <path d="M35.2,130.9c-1.1.7-1,12.6-3.2,15.3s-15.9,8.7-19.9,6.4c-3.7-2.2-1.7-17.7.1-20.7,2-3.5,14.2-5,18.4-7.8,8.1-5.3,19.9-29.5,23.3-39,7.5-21.2,8.9-58.5,37.6-60.7,38.4-2.9,80.3,2.3,119.1,0,1.3,0,2.6.3,3.9.7,11.8,3.1,30.5,34.8,38.6,45.3,19.8,25.8,44.3,50.2,78.8,52.4-1.7-4.4-5.5-6.8-4.3-12s6.6-11.8,7.4-12.4c2.2-1.6,5.7-1.3,7.8.5s6.8,10.9,7,12c1.3,5.9-4.9,10.6-7.2,15.9-4.9,11.3-4.8,26.2-21,28.6-40.8-2.6-86,3.5-126.3,0-23.9-2.1-44.2-38.1-55-56.8,0,8.6-2,16.6-4,24.8-.5,2-2,3.7-2.5,5.6-1.2,4.7-.4,13.2-2.9,17-1,1.5-11.7,8.1-13.3,8.4-4.2.6-6.6-3.7-6.6-7.5,0-6.4.7-12.3,6.4-15.8H35.2ZM132.6,109.3v-23c0-13-21.4-50.6-35.1-54.1-27.4-7-30.8,37.4-37,55.1-2.7,7.6-6.5,14.8-9.9,22.1h82.1ZM213.3,31.7h-103.3c16.1,14.3,21.7,34.1,30.8,52.6s28.9,55.5,49.8,63c15.7,5.6,25.3-8.1,31.1-20.6-7.4-11-9.8-14.4-1.5-25.8,2.3-3.1,5.9-5,9.4-2.5.6.4,7.1,11.5,7.4,12.5,1.5,5.5-3.1,7.4-4.3,11.9h69.4l-8.9-5c-17.8-10.7-31.1-24.8-43.7-41.1-11.8-15.1-20.9-33.2-36.2-45ZM226.4,120.1c3.9-6.4,4.9-8.2-.4-14.4l-4.6,7.6,5.1,6.8ZM338.7,105.7c-4.7,5.5-5.3,9,0,14.4,4.7-5.5,5.3-9,0-14.4ZM130.8,116.5H45.6l-5,7.2h88.4l1.8-7.2ZM334.6,130h-107.3l-3.6,7.2h109.1l1.8-7.2ZM28,132.7l-9.7,2.9-1.1,10.6,9.5-4.5,1.3-9ZM126.3,134.6c-6.3,1.7-9.4,4.9-8.1,11.7,1-1,6.8-3.4,7-3.8s1.3-7.6,1.1-7.9ZM327.4,144.5h-108.7c-.3,0-3.7,3.6-4.1,4.5h106.9c.6,0,5.7-3.1,5.9-4.5Z"/>
  <path class="st0" d="M213.3,31.7c15.3,11.8,24.4,29.9,36.2,45,12.6,16.2,25.9,30.4,43.7,41.1l8.9,5h-69.4c1.2-4.6,5.8-6.5,4.3-11.9-.2-.9-6.8-12-7.4-12.5-3.5-2.6-7.1-.7-9.4,2.5-8.3,11.5-5.9,14.9,1.5,25.8-5.8,12.5-15.4,26.3-31.1,20.6-20.9-7.5-40.4-43.7-49.8-63s-14.7-38.4-30.8-52.6h103.3Z"/>
  <path class="st0" d="M132.6,109.3H50.5c3.5-7.2,7.3-14.5,9.9-22.1,6.2-17.6,9.6-62,37-55.1,13.7,3.5,35.1,41.2,35.1,54.1v23Z"/>
  <polygon class="st0" points="334.6 130 332.8 137.3 223.7 137.3 227.3 130 334.6 130"/>
  <polygon class="st0" points="130.8 116.5 129 123.7 40.6 123.7 45.6 116.5 130.8 116.5"/>
  <path class="st0" d="M327.4,144.5c-.1,1.4-5.3,4.5-5.9,4.5h-106.9c.4-.9,3.8-4.5,4.1-4.5h108.7Z"/>
  <polygon class="st0" points="28 132.7 26.6 141.8 17.2 146.3 18.2 135.6 28 132.7"/>
  <path class="st0" d="M226.4,120.1l-5.1-6.8,4.6-7.6c5.3,6.2,4.3,8,.4,14.4Z"/>
  <path class="st0" d="M338.7,105.7c5.3,5.4,4.7,8.9,0,14.4-5.3-5.4-4.7-8.9,0-14.4Z"/>
  <path class="st0" d="M126.3,134.6c.3.3-.9,7.6-1.1,7.9s-6,2.8-7,3.8c-1.3-6.8,1.8-10,8.1-11.7Z"/>
</svg>